<svg id="Layer_1" viewBox="0 0 24 24" xmlns="http://www.w3.org/2000/svg" data-name="Layer 1"><path d="m21.949 6.684c-.1-.299-.334-.533-.632-.632-.097-.032-1.865-.609-5.316-.894.084-2.26-1.735-4.163-4-4.158-2.265-.005-4.084 1.898-4 4.158-3.452.285-5.22.862-5.316.894-.298.099-.533.333-.632.632-.043.129-1.051 3.201-1.051 7.316s1.008 7.188 1.051 7.316c.1.299.334.533.632.632.129.043 3.224 1.052 9.316 1.052s9.188-1.009 9.316-1.052c.298-.099.533-.333.632-.632.043-.129 1.051-3.201 1.051-7.316s-1.008-7.188-1.051-7.316zm-11.949-1.684c0-1.103.897-2 2-2s2 .897 2 2v.039c-.628-.024-1.291-.039-2-.039s-1.372.015-2 .039zm2 16c-4.397 0-7.146-.555-8.197-.815-.266-.981-.803-3.316-.803-6.185s.538-5.199.804-6.185c1.054-.262 3.802-.815 8.196-.815s7.146.555 8.197.815c.266.981.803 3.316.803 6.185s-.538 5.199-.804 6.185c-1.054.262-3.802.815-8.196.815z"/></svg>