<svg id="Layer_1" viewBox="0 0 24 24" xmlns="http://www.w3.org/2000/svg" data-name="Layer 1"><path d="m21.948 6.684c-.099-.299-.333-.533-.632-.632-.097-.032-1.865-.609-5.316-.894v-.158c0-2.206-1.794-4-4-4s-4 1.794-4 4v.158c-3.451.286-5.22.862-5.316.894-.299.099-.533.333-.632.632-.043.129-1.052 3.201-1.052 7.316s1.009 7.188 1.052 7.316c.099.299.333.533.632.632.129.043 3.225 1.052 9.316 1.052s9.188-1.009 9.316-1.052c.299-.099.533-.333.632-.632.043-.129 1.052-3.201 1.052-7.316s-1.009-7.188-1.052-7.316zm-11.948-1.684c0-1.103.897-2 2-2s2 .897 2 2v.039c-.628-.024-1.291-.039-2-.039s-1.372.015-2 .039zm8 15.599v-10.599c0-.553-.447-1-1-1s-1 .447-1 1v10.83c-1.134.1-2.46.17-4 .17s-2.866-.07-4-.17v-10.83c0-.553-.447-1-1-1s-1 .447-1 1v10.599c-1.016-.149-1.761-.307-2.197-.415-.266-.981-.803-3.316-.803-6.185s.538-5.199.804-6.185c1.054-.262 3.802-.815 8.196-.815s7.146.555 8.197.815c.266.981.803 3.316.803 6.185s-.538 5.199-.804 6.185c-.437.108-1.181.266-2.196.415z"/></svg>