<?xml version="1.0" encoding="UTF-8"?>
<svg xmlns="http://www.w3.org/2000/svg" id="Layer_1" data-name="Layer 1" viewBox="0 0 24 24">
  <path d="M14,2.5c0-1.381,1.119-2.5,2.5-2.5s2.5,1.119,2.5,2.5-1.119,2.5-2.5,2.5-2.5-1.119-2.5-2.5Zm9.171,9.658l-2.644-1.322-1.694-2.54c-.958-1.438-2.562-2.296-4.289-2.296-.509,0-1.015,.075-1.5,.223l-3.882,1.181c-.706,.215-1.278,.728-1.569,1.407l-.471,1.098c-.326,.761,.026,1.643,.788,1.97,.761,.327,1.643-.025,1.97-.788l.379-.885,2.585-.786-.751,3.21c-.351,1.5,.339,3.079,1.679,3.84l4.229,2.402v3.627c0,.829,.671,1.5,1.5,1.5s1.5-.671,1.5-1.5v-3.918c0-.897-.484-1.73-1.265-2.174l-3.229-1.834,.834-3.109,.764,1.146c.241,.361,.574,.655,.962,.85l2.763,1.381c.215,.107,.444,.159,.67,.159,.55,0,1.08-.304,1.343-.83,.37-.741,.07-1.642-.671-2.013Zm-9.5,6c-.739-.369-1.641-.069-2.013,.671l-1.5,3c-.37,.741-.07,1.642,.671,2.013,.215,.107,.444,.159,.67,.159,.55,0,1.08-.304,1.343-.83l1.5-3c.37-.741,.07-1.642-.671-2.013Zm-3.78,.461l-.826,1.676c-.566,1.149-1.953,1.629-3.108,1.075l-4.63-2.22c-1.173-.562-1.662-1.975-1.086-3.142l.832-1.689c.568-1.152,1.958-1.63,3.114-1.072l.152,.073,.105-.226c.352-.755,1.251-1.079,2.003-.721l1.582,.751c.745,.354,1.064,1.241,.716,1.988l-.13,.273,.195,.094c1.169,.565,1.654,1.974,1.081,3.139Z"/>
</svg>
