<?xml version="1.0" encoding="UTF-8"?>
<svg xmlns="http://www.w3.org/2000/svg" id="Layer_1" data-name="Layer 1" viewBox="0 0 24 24">
  <path d="M16.5,5c1.378,0,2.5-1.122,2.5-2.5s-1.122-2.5-2.5-2.5-2.5,1.122-2.5,2.5,1.122,2.5,2.5,2.5Zm0-4c.827,0,1.5,.673,1.5,1.5s-.673,1.5-1.5,1.5-1.5-.673-1.5-1.5,.673-1.5,1.5-1.5Zm4.264,9.627l-2.382-3.773c-.475-.543-1.161-.854-1.882-.854h-2.814l-4.237,2.2-1.719,2.948,.864,.504,1.573-2.698,3.262-1.694-1.349,5.585c-.26,1.077,.231,2.213,1.195,2.761l4.726,2.685v5.709h1v-6.291l-2.794-1.587,2.03-7.633,1.815,2.883,3.355,1.908,.494-.869-3.137-1.784Zm-6.996,4.11c-.579-.329-.874-1.01-.717-1.657l1.469-6.08h1.981c.398,0,.773,.162,1.016,.392l-2.167,8.244-1.581-.898Zm-.268,2.763l-.564,2.249-2.012,4.251h-1.097l2.187-4.66,.601-2.348c.06,.037,.886,.508,.886,.508Zm-3.082-1.301c-.132-.377-.404-.681-.766-.855l-.924-.443,.146-.314c.336-.722,.025-1.587-.695-1.929l-1.007-.479c-.705-.352-1.625-.019-1.943,.7l-.131,.281-.909-.436c-.749-.356-1.645-.04-1.998,.699L.037,17.774l8.167,3.915,2.155-4.349c.172-.358,.193-.764,.06-1.141Zm-4.283-2.897c.052-.111,.144-.195,.258-.236,.116-.042,.24-.036,.35,.017l1.007,.479c.225,.107,.322,.377,.217,.603l-.142,.305-1.826-.876,.136-.291Zm-2.76,.305c.126-.044,.263-.037,.382,.02l5.461,2.619c.24,.106,.356,.426,.241,.656l-.37,.747-6.363-3.05,.365-.737c.057-.12,.158-.21,.284-.255Zm4.37,6.754l-6.363-3.05,.9-1.816,2.723,1.305-.396,.807,.897,.441,.401-.816,2.738,1.313-.9,1.816Z"/>
</svg>
